<svg width="25" height="25" viewBox="0 0 25 25" fill="none" xmlns="http://www.w3.org/2000/svg">
<g clip-path="url(#clip0_234_22)">
<path d="M9.21947 18.4375C11.05 20.2681 14.018 20.2681 15.8486 18.4375L15.8487 18.4375L19.1945 15.0917C19.8152 14.4921 19.8324 13.503 19.2329 12.8823C18.6334 12.2616 17.6442 12.2444 17.0235 12.8439C17.0105 12.8564 16.9977 12.8693 16.9851 12.8823L14.0862 15.7802L14.0622 1.5625C14.0622 0.699561 13.3626 0 12.4997 0C11.6368 0 10.9372 0.699561 10.9372 1.5625L10.9591 15.7573L8.08304 12.8813C7.46234 12.2817 6.47318 12.2989 5.87367 12.9196C5.28885 13.5251 5.28885 14.4851 5.87367 15.0906L9.21947 18.4375Z" fill="white"/>
<path d="M23.4375 15.1041C22.5746 15.1041 21.875 15.8037 21.875 16.6666V21.4489C21.8744 21.684 21.684 21.8744 21.449 21.8749H3.55103C3.31597 21.8743 3.12554 21.684 3.125 21.4489V16.6666C3.125 15.8037 2.42544 15.1041 1.5625 15.1041C0.69956 15.1041 0 15.8037 0 16.6666V21.4489C0.00229492 23.4092 1.59082 24.9977 3.55103 25H21.4489C23.4092 24.9977 24.9977 23.4092 24.9999 21.4489V16.6667C25 15.8037 24.3004 15.1041 23.4375 15.1041Z" fill="white"/>
</g>
<defs>
<clipPath id="clip0_234_22">
<rect width="25" height="25" fill="white"/>
</clipPath>
</defs>
</svg>
