<svg width="40" height="40" viewBox="0 0 40 40" fill="none" xmlns="http://www.w3.org/2000/svg">
<path d="M36.8416 12.5883C36.4683 13.335 35.9699 13.7933 35.3183 13.985C34.2949 14.29 33.0799 13.8983 32.5099 13.5633C31.7583 13.1216 30.8866 12.4516 29.9649 11.7433C27.0233 9.47996 23.3633 6.66663 18.3333 6.66663C14.3099 6.66663 12.2433 8.73163 8.82161 12.155L11.1666 14.5233C12.0766 13.815 17.8849 14.4983 20.4199 16.5133C24.1849 19.505 26.9033 21.6666 29.9999 21.6666C34.4316 21.6666 38.1316 18.765 39.8999 13.9033L36.8416 12.5883ZM26.9866 25.6516C25.9649 25.9516 24.7483 25.565 24.1783 25.23C23.4266 24.7883 22.5549 24.1183 21.6333 23.41C18.6899 21.1466 15.0299 18.3333 9.99995 18.3333C5.97661 18.3333 3.90995 20.3983 0.488281 23.8216L2.83328 26.19C3.74161 25.4783 9.55328 26.1666 12.0866 28.18C15.8516 31.1716 18.5699 33.3333 21.6666 33.3333C26.0983 33.3333 29.7983 30.4316 31.5666 25.57L28.5099 24.255C28.1349 25.0016 27.6383 25.4583 26.9866 25.6516Z" fill="white"/>
</svg>
