<svg width="25" height="25" viewBox="0 0 25 25" fill="none" xmlns="http://www.w3.org/2000/svg">
<g clip-path="url(#clip0_236_56)">
<path d="M13.7915 0.0655999C12.7303 -0.0428962 11.6597 -0.0169684 10.605 0.142699C9.79209 0.27976 9.24419 1.04983 9.38125 1.86277C9.39844 1.96785 9.46128 2.17185 9.46128 2.17185C9.6855 2.89665 10.4108 3.34431 11.1592 3.21975C11.6033 3.15676 12.0513 3.12507 12.4998 3.12497V21.875C12.0513 21.8748 11.6033 21.8432 11.1592 21.7802C10.4108 21.6556 9.68545 22.1033 9.46128 22.8281L9.42276 22.9593C9.18452 23.7449 9.62827 24.575 10.4139 24.8132C10.4718 24.8308 10.5308 24.8448 10.5905 24.8552C11.2224 24.9515 11.8606 24.9999 12.4999 25C19.4034 25.0069 25.0055 19.4161 25.0124 12.5125C25.0188 6.09944 20.1709 0.72185 13.7915 0.0655999Z" fill="white"/>
<path d="M3.13127 17.7884L3.00729 17.8592C2.28893 18.2578 2.0297 19.1633 2.42829 19.8817C2.45797 19.9352 2.49098 19.9869 2.52707 20.0363C3.15031 20.8588 3.87204 21.6019 4.67604 22.2488C5.32712 22.7508 6.26183 22.6299 6.76379 21.9789C6.79992 21.932 6.93649 21.7103 6.93649 21.7103C7.32048 21.068 7.16999 20.2407 6.58439 19.7749C6.01466 19.3109 5.50143 18.7816 5.05524 18.1978C4.60695 17.5987 3.78459 17.4237 3.13127 17.7884Z" fill="white"/>
<path d="M6.93639 3.29195L6.86349 3.17007C6.44254 2.46392 5.52887 2.23272 4.82271 2.65362C4.77188 2.68394 4.72286 2.71724 4.67598 2.75337C3.87091 3.4002 3.14844 4.14366 2.52496 4.9669C2.04092 5.63072 2.18667 6.56119 2.85049 7.04522C2.89996 7.0813 3.12496 7.21377 3.12496 7.21377C3.77852 7.57906 4.60157 7.40401 5.04996 6.8044C5.49732 6.22095 6.01124 5.6917 6.58121 5.2273C7.16823 4.76265 7.32013 3.93487 6.93639 3.29195Z" fill="white"/>
<path d="M3.125 12.5004C3.12524 12.1332 3.14648 11.7663 3.18853 11.4015C3.28428 10.6593 2.81572 9.96095 2.09268 9.76813L1.95415 9.73165C1.14785 9.52687 0.328223 10.0145 0.123438 10.8208C0.105664 10.8907 0.0929199 10.9619 0.0854004 11.0337C-0.0284668 12.0096 -0.0284668 12.9954 0.0854004 13.9712C0.172266 14.7986 0.913379 15.3988 1.74067 15.312C1.81479 15.3042 2.09893 15.2358 2.09893 15.2358C2.82139 15.043 3.2895 14.3451 3.1937 13.6035C3.14946 13.2375 3.12651 12.8692 3.125 12.5004Z" fill="white"/>
</g>
<defs>
<clipPath id="clip0_236_56">
<rect width="25" height="25" fill="white"/>
</clipPath>
</defs>
</svg>
