<svg width="1000" height="527" viewBox="0 0 1000 527" fill="none" xmlns="http://www.w3.org/2000/svg">
<path d="M310.391 81.5421C392.351 -4.44802 525.315 -26.6842 632.752 35.34C729.902 91.4262 777.807 200.034 761.324 304.585L691.322 264.172C691.493 198.24 657.357 134.051 596.158 98.72C515.812 52.3351 415.697 71.1983 357.182 138.87L1000 509.979L727.658 431.643C716.666 429.405 705.357 432.772 696.725 439.959C615.265 530.476 478.969 554.987 369.278 491.661C272.501 435.79 224.581 327.799 240.506 223.619L310.708 264.146C310.991 329.616 345.08 393.188 405.872 428.284C485.869 474.467 585.46 455.962 644.079 389.005L243.608 157.809C243.589 157.798 243.572 157.785 243.553 157.775L0 17.1702L271.913 95.6955C271.932 95.7009 271.952 95.7072 271.97 95.7127C284.251 99.2585 297.743 94.5806 306.448 85.2213C307.753 83.8186 309.07 82.5932 310.391 81.5421Z" fill="white"/>
</svg>
