<svg width="25" height="25" viewBox="0 0 25 25" fill="none" xmlns="http://www.w3.org/2000/svg">
<g clip-path="url(#clip0_234_4)">
<path fill-rule="evenodd" clip-rule="evenodd" d="M12.4628 0C5.57117 0 0 5.72917 0 12.8169C0 18.4826 3.56964 23.2784 8.52168 24.9758C9.14082 25.1034 9.3676 24.7 9.3676 24.3607C9.3676 24.0635 9.34719 23.0451 9.34719 21.9839C5.88036 22.7479 5.15842 20.456 5.15842 20.456C4.60128 18.9706 3.77577 18.5888 3.77577 18.5888C2.64107 17.8036 3.85842 17.8036 3.85842 17.8036C5.11709 17.8885 5.77755 19.1193 5.77755 19.1193C6.89158 21.0714 8.68673 20.5198 9.40893 20.1802C9.51199 19.3526 9.84235 18.7797 10.1931 18.4615C7.42806 18.1643 4.51888 17.0609 4.51888 12.1378C4.51888 10.7372 5.01378 9.59141 5.79796 8.70026C5.67423 8.38203 5.24082 7.06615 5.92194 5.30495C5.92194 5.30495 6.97423 4.96536 9.34694 6.62057C10.3628 6.34002 11.4104 6.1973 12.4628 6.19609C13.5151 6.19609 14.5878 6.34479 15.5783 6.62057C17.9513 4.96536 19.0036 5.30495 19.0036 5.30495C19.6847 7.06615 19.251 8.38203 19.1273 8.70026C19.9321 9.59141 20.4066 10.7372 20.4066 12.1378C20.4066 17.0609 17.4974 18.143 14.7117 18.4615C15.1658 18.8646 15.5577 19.6284 15.5577 20.838C15.5577 22.5568 15.5372 23.9362 15.5372 24.3604C15.5372 24.7 15.7643 25.1034 16.3832 24.976C21.3352 23.2781 24.9048 18.4826 24.9048 12.8169C24.9253 5.72917 19.3337 0 12.4628 0Z" fill="white"/>
</g>
<defs>
<clipPath id="clip0_234_4">
<rect width="25" height="25" fill="white"/>
</clipPath>
</defs>
</svg>
