<svg width="40" height="40" viewBox="0 0 40 40" fill="none" xmlns="http://www.w3.org/2000/svg">
<path d="M19.3078 37.204L0.110217 4.40402C-0.200983 3.87122 0.183817 3.19922 0.801417 3.19922H15.503C15.787 3.19922 16.0494 3.35042 16.1934 3.59602L19.999 10.0992L23.8038 3.59602C23.9478 3.35042 24.2102 3.19922 24.495 3.19922H39.199C39.8158 3.19922 40.2006 3.87122 39.8894 4.40322L20.6894 37.2032C20.3814 37.7304 19.6166 37.7304 19.3078 37.204ZM19.999 35.2168L37.803 4.79922H31.1398L20.6894 22.6568C20.3814 23.184 19.6166 23.184 19.3078 22.6568L8.85662 4.79922H2.19582L19.999 35.2168Z" fill="white"/>
</svg>
